<svg width="100" height="93" viewBox="0 0 100 93" fill="none" xmlns="http://www.w3.org/2000/svg">
<line x1="2.52145" y1="4.18209" x2="6.05698" y2="0.646557" stroke="#6A4519"/>
<line x1="21.0527" y1="4.18649" x2="24.5882" y2="0.650952" stroke="#6A4519"/>
<line x1="39.5839" y1="4.19088" x2="43.1195" y2="0.655346" stroke="#6A4519"/>
<line x1="58.1152" y1="4.19527" x2="61.6507" y2="0.659741" stroke="#6A4519"/>
<line x1="76.6464" y1="4.19967" x2="80.182" y2="0.664135" stroke="#6A4519"/>
<line x1="95.1777" y1="4.20406" x2="98.7132" y2="0.66853" stroke="#6A4519"/>
<line x1="2.0527" y1="26.1865" x2="5.58823" y2="22.651" stroke="#6A4519"/>
<line x1="20.5839" y1="26.1909" x2="24.1195" y2="22.6553" stroke="#6A4519"/>
<line x1="39.1152" y1="26.1953" x2="42.6507" y2="22.6597" stroke="#6A4519"/>
<line x1="57.6464" y1="26.1997" x2="61.182" y2="22.6641" stroke="#6A4519"/>
<line x1="76.1777" y1="26.2041" x2="79.7132" y2="22.6685" stroke="#6A4519"/>
<line x1="94.7089" y1="26.2085" x2="98.2445" y2="22.6729" stroke="#6A4519"/>
<line x1="1.58395" y1="48.1909" x2="5.11948" y2="44.6553" stroke="#6A4519"/>
<line x1="20.1152" y1="48.1953" x2="23.6507" y2="44.6597" stroke="#6A4519"/>
<line x1="38.6464" y1="48.1997" x2="42.182" y2="44.6641" stroke="#6A4519"/>
<line x1="57.1777" y1="48.2041" x2="60.7132" y2="44.6685" stroke="#6A4519"/>
<line x1="75.7089" y1="48.2085" x2="79.2445" y2="44.6729" stroke="#6A4519"/>
<line x1="94.2402" y1="48.2129" x2="97.7757" y2="44.6773" stroke="#6A4519"/>
<line x1="1.1152" y1="70.1953" x2="4.65073" y2="66.6597" stroke="#6A4519"/>
<line x1="19.6464" y1="70.1997" x2="23.182" y2="66.6641" stroke="#6A4519"/>
<line x1="38.1777" y1="70.2041" x2="41.7132" y2="66.6685" stroke="#6A4519"/>
<line x1="56.7089" y1="70.2085" x2="60.2445" y2="66.6729" stroke="#6A4519"/>
<line x1="75.2402" y1="70.2129" x2="78.7757" y2="66.6773" stroke="#6A4519"/>
<line x1="93.7714" y1="70.2172" x2="97.307" y2="66.6817" stroke="#6A4519"/>
<line x1="0.646447" y1="92.1997" x2="4.18198" y2="88.6641" stroke="#6A4519"/>
<line x1="19.1777" y1="92.2041" x2="22.7132" y2="88.6685" stroke="#6A4519"/>
<line x1="37.7089" y1="92.2085" x2="41.2445" y2="88.6729" stroke="#6A4519"/>
<line x1="56.2402" y1="92.2129" x2="59.7757" y2="88.6773" stroke="#6A4519"/>
<line x1="74.7714" y1="92.2172" x2="78.307" y2="88.6817" stroke="#6A4519"/>
<line x1="93.3027" y1="92.2216" x2="96.8382" y2="88.6861" stroke="#6A4519"/>
</svg>
