<svg width="1442" height="146" viewBox="0 0 1442 146" fill="none" xmlns="http://www.w3.org/2000/svg">
<path d="M1 18C49 -2 97 -2 145 18C193 38 241 38 289 18C337 -2 385 -2 433 18C481 38 529 38 577 18C625 -2 673 -2 721 18C769 38 817 38 865 18C913 -2 961 -2 1009 18C1057 38 1105 38 1153 18C1201 -2 1249 -2 1297 18C1345 38 1393 38 1441 18" stroke="#C7A589" stroke-opacity="0.2" stroke-width="5"/>
<path d="M1 73C49 53 97 53 145 73C193 93 241 93 289 73C337 53 385 53 433 73C481 93 529 93 577 73C625 53 673 53 721 73C769 93 817 93 865 73C913 53 961 53 1009 73C1057 93 1105 93 1153 73C1201 53 1249 53 1297 73C1345 93 1393 93 1441 73" stroke="#C7A589" stroke-opacity="0.3" stroke-width="5"/>
<path d="M1 128C49 108 97 108 145 128C193 148 241 148 289 128C337 108 385 108 433 128C481 148 529 148 577 128C625 108 673 108 721 128C769 148 817 148 865 128C913 108 961 108 1009 128C1057 148 1105 148 1153 128C1201 108 1249 108 1297 128C1345 148 1393 148 1441 128" stroke="#C7A589" stroke-opacity="0.35" stroke-width="5"/>
</svg>
